<?xml version="1.0" encoding="utf-8"?>
<?xml-stylesheet type="text/xsl" href="rss1.xsl"?>
<rss version="2.0" xmlns:atom="http://www.w3.org/2005/Atom" xmlns:content="http://purl.org/rss/1.0/modules/content/" xmlns:dc="http://purl.org/dc/elements/1.1/" xmlns:media="http://search.yahoo.com/mrss/">
<channel>
 <title>Getty</title>
 <link>http://www.gettyimg.com/</link>
 <atom:link href="http://www.gettyimg.com/" rel="self" type="application/rss+xml" />

 
                <item>
                <title><![CDATA[【Music Videos】4 Non Blondes - What's Up (Backing &amp; Vocal Mix) (VJ-RoGeRs Video Edit) (Clean)]]></title>
                <link><![CDATA[https://sharemania.us/threads/4-non-blondes-whats-up-backing-vocal-mix-vj-rogers-video-edit-clean.242224/]]></link>
                <description><![CDATA[<article>
<blockquote class="messageText SelectQuoteContainer ugc baseHtml">
<img src="https://i.ibb.co/t3ff92V/4-Non-Blondes-What-s-Up-Backing-Vocal-Mix-VJ-Ro-Ge-Rs-Video-Edit-mp4-thumbs-2024-04-14-18-18-25.jpg" class="bbCodeImage LbImage" alt="[​IMG]" data-url="https://i.ibb.co/t3ff92V/4-Non-Blondes-What-s-Up-Backing-Vocal-Mix-VJ-Ro-Ge-Rs-Video-Edit-mp4-thumbs-2024-04-14-18-18-25.jpg" style=""> <br>
<br>
<div class="ToggleTriggerAnchor bbCodeSpoilerContainer">
<button type="button" class="button bbCodeSpoilerButton ToggleTrigger Tooltip JsOnly" data-target="> .SpoilerTarget"><span>Spoiler: <span class="SpoilerTitle">MediaInfo</span></span></button>
<div class="SpoilerTarget bbCodeSpoilerText">4 Non Blondes - What's Up (Backing &amp; Vocal Mix) (VJ-RoGeRs Video Edit).mp4<br>
Format : MPEG-4<br>
Format profile : Base Media / Version 2<br>
Codec ID : mp42 (mp42/mp41)<br>
File size : 361 MiB<br>
Duration : 4 min 54 s<br>
Overall bit rate mode : Variable<br>
Overall bit rate : 10.3 Mb/s<br>
Frame rate : 25.000 FPS<br>
Encoded date : 2021-06-27 20:37:51 UTC<br>
Tagged date : 2021-06-27 20:38:01 UTC<br>
TIM : 00:00:00:00<br>
TSC : 25<br>
TSZ : 1<br>
<br>
Video<br>
ID : 1<br>
Format : AVC<br>
Format/Info : Advanced Video Codec<br>
Format profile : High@L3.1<br>
Format settings : CABAC / 4 Ref Frames<br>
Format settings, CABAC : Yes<br>
Format settings, Reference : 4 frames<br>
Codec ID : avc1<br>
Codec ID/Info : Advanced Video Coding<br>
Duration : 4 min 54 s<br>
Bit rate mode : Variable<br>
Bit rate : 9 971 kb/s<br>
Maximum bit rate : 12.0 Mb/s<br>
Width : 720 pixels<br>
Height : 576 pixels<br>
Display aspect ratio : 4:3<br>
Original display aspect rat : 4:3<br>
Frame rate mode : Constant<br>
Frame rate : 25.000 FPS<br>
Standard : PAL<br>
Color space : YUV<br>
Chroma subsampling : 4:2:0<br>
Bit depth : 8 bits<br>
Scan type : Interlaced<br>
Scan type, store method : Separated fields<br>
Scan order : Top Field First<br>
Bits/(Pixel*Frame) : 0.962<br>
Stream size : 350 MiB (97%)<br>
Language : English<br>
Encoded date : 2021-06-27 20:37:51 UTC<br>
Tagged date : 2021-06-27 20:37:51 UTC<br>
Color range : Limited<br>
Color primaries : BT.601 PAL<br>
Transfer characteristics : BT.470 System B/G<br>
Matrix coefficients : BT.470 System B/G<br>
Codec configuration box : avcC<br>
<br>
Audio<br>
ID : 2<br>
Format : AAC LC<br>
Format/Info : Advanced Audio Codec Low Complexity<br>
Codec ID : mp4a-40-2<br>
Duration : 4 min 54 s<br>
Source duration : 4 min 54 s<br>
Bit rate mode : Variable<br>
Bit rate : 317 kb/s<br>
Maximum bit rate : 412 kb/s<br>
Channel(s) : 2 channels<br>
Channel layout : L R<br>
Sampling rate : 48.0 kHz<br>
Frame rate : 46.875 FPS (1024 SPF)<br>
Compression mode : Lossy<br>
Stream size : 11.1 MiB (3%)<br>
Source stream size : 11.1 MiB (3%)<br>
Language : English<br>
Encoded date : 2021-06-27 20:37:51 UTC<br>
Tagged date : 2021-06-27 20:37:51 UTC</div>
</div><br>
*Edición trabajada en base a multipistas, con el fin de sentir el tema de manera más armoniosa y escuchar otros sonidos que pasan desapercibidos! **Recomiendo escuchar con audífonos!!!<br>
**Edition worked based on multitracks, in order to feel the song in a more harmonious way and listen to other sounds that go unnoticed! **I recommend listening with headphones!!!<br>
<br>
<div class="bbCodeBlock bbCodeVfcHH HiddenContent">
<div class="attribution type">Hidden Content:</div>
<blockquote>You must reply before you can see the hidden data contained here.</blockquote>
</div>
<div class="messageTextEndMarker">&nbsp;</div>
</blockquote>
</article>]]></description>
                <author><![CDATA[DJ-RoGeRs-BS]]></author>
                </item>

                </channel></rss>